<svg width="16" height="14" viewBox="0 0 16 14" fill="none" xmlns="http://www.w3.org/2000/svg">
<path d="M10.2757 7.35707L9.32143 9.28564H6.10714L5.1529 7.35707H1.97879C1.99888 7.30685 2.00893 7.24658 2.02902 7.19636L4.15848 2.21421H11.2701L13.3996 7.19636C13.4196 7.24658 13.4297 7.30685 13.4498 7.35707H10.2757ZM15.4286 7.65841C15.4286 7.2968 15.3181 6.76444 15.1775 6.42292L12.7868 0.878273C12.6462 0.546799 12.2444 0.285645 11.8929 0.285645H3.53571C3.18415 0.285645 2.78237 0.546799 2.64174 0.878273L0.251116 6.42292C0.110491 6.76444 0 7.2968 0 7.65841V12.4999C0 12.8515 0.291295 13.1428 0.642857 13.1428H14.7857C15.1373 13.1428 15.4286 12.8515 15.4286 12.4999V7.65841Z" fill="#7E5AFF"/>
</svg>
