<svg width="0" height="0" class="hidden">
  <symbol xmlns="http://www.w3.org/2000/svg" viewBox="0 0 9 6" id="arrow">
    <path d="M8.90481 1.111C8.96061 1.1668 8.98851 1.23097 8.98851 1.30352C8.98851 1.37606 8.96061 1.44024 8.90481 1.49604L5.00414 5.39671C4.94833 5.45251 4.88416 5.48042 4.81161 5.48042C4.73907 5.48042 4.6749 5.45251 4.61909 5.39671L0.718422 1.49604C0.662619 1.44024 0.634717 1.37606 0.634717 1.30352C0.634717 1.23097 0.662619 1.1668 0.718422 1.111L1.13695 0.69247C1.19275 0.636667 1.25693 0.608765 1.32947 0.608765C1.40202 0.608765 1.46619 0.636667 1.52199 0.69247L4.81161 3.98209L8.10124 0.69247C8.15704 0.636667 8.22121 0.608765 8.29376 0.608765C8.3663 0.608765 8.43048 0.636667 8.48628 0.69247L8.90481 1.111Z"></path>
  </symbol>
  <symbol xmlns="http://www.w3.org/2000/svg" viewBox="0 0 10 16" id="fb">
    <path d="M8.71875 9H6.375V16H3.25V9H0.71875V6.09375H3.25V3.90625C3.25 3.07292 3.40625 2.36458 3.71875 1.78125C4.03125 1.19792 4.46875 0.760417 5.03125 0.46875C5.61458 0.15625 6.28125 0 7.03125 0C7.36458 0 7.71875 0.0208333 8.09375 0.0625C8.46875 0.0833333 8.76042 0.114583 8.96875 0.15625L9.28125 0.1875V2.65625H8.03125C7.44792 2.65625 7.02083 2.8125 6.75 3.125C6.5 3.41667 6.375 3.78125 6.375 4.21875V6.09375H9.15625L8.71875 9Z" ></path>
  </symbol>
  <symbol xmlns="http://www.w3.org/2000/svg" viewBox="0 0 15 14" id="ig">
    <path d="M4.46875 4.46875C5.17708 3.76042 6.03125 3.40625 7.03125 3.40625C8.03125 3.40625 8.875 3.76042 9.5625 4.46875C10.2708 5.15625 10.625 6 10.625 7C10.625 8 10.2708 8.85417 9.5625 9.5625C8.875 10.25 8.03125 10.5938 7.03125 10.5938C6.03125 10.5938 5.17708 10.25 4.46875 9.5625C3.78125 8.85417 3.4375 8 3.4375 7C3.4375 6 3.78125 5.15625 4.46875 4.46875ZM5.375 8.65625C5.83333 9.11458 6.38542 9.34375 7.03125 9.34375C7.67708 9.34375 8.22917 9.11458 8.6875 8.65625C9.14583 8.19792 9.375 7.64583 9.375 7C9.375 6.35417 9.14583 5.80208 8.6875 5.34375C8.22917 4.88542 7.67708 4.65625 7.03125 4.65625C6.38542 4.65625 5.83333 4.88542 5.375 5.34375C4.91667 5.80208 4.6875 6.35417 4.6875 7C4.6875 7.64583 4.91667 8.19792 5.375 8.65625ZM11.3438 2.6875C11.5104 2.83333 11.5938 3.02083 11.5938 3.25C11.5938 3.47917 11.5104 3.67708 11.3438 3.84375C11.1979 4.01042 11.0104 4.09375 10.7812 4.09375C10.5521 4.09375 10.3542 4.01042 10.1875 3.84375C10.0208 3.67708 9.9375 3.47917 9.9375 3.25C9.9375 3.02083 10.0208 2.83333 10.1875 2.6875C10.3542 2.52083 10.5521 2.4375 10.7812 2.4375C11.0104 2.4375 11.1979 2.52083 11.3438 2.6875ZM14 4.125C14.0208 4.6875 14.0312 5.64583 14.0312 7C14.0312 8.35417 14.0208 9.3125 14 9.875C13.9375 11.1458 13.5521 12.1354 12.8438 12.8438C12.1562 13.5312 11.1771 13.8958 9.90625 13.9375C9.34375 13.9792 8.38542 14 7.03125 14C5.67708 14 4.71875 13.9792 4.15625 13.9375C2.88542 13.875 1.90625 13.5 1.21875 12.8125C0.947917 12.5625 0.729167 12.2708 0.5625 11.9375C0.395833 11.6042 0.270833 11.2812 0.1875 10.9688C0.125 10.6562 0.09375 10.2917 0.09375 9.875C0.0520833 9.3125 0.03125 8.35417 0.03125 7C0.03125 5.64583 0.0520833 4.67708 0.09375 4.09375C0.15625 2.84375 0.53125 1.875 1.21875 1.1875C1.90625 0.479167 2.88542 0.09375 4.15625 0.03125C4.71875 0.0104167 5.67708 0 7.03125 0C8.38542 0 9.34375 0.0104167 9.90625 0.03125C11.1771 0.09375 12.1562 0.479167 12.8438 1.1875C13.5521 1.875 13.9375 2.85417 14 4.125ZM12.5 11.125C12.5625 10.9583 12.6146 10.75 12.6562 10.5C12.6979 10.2292 12.7292 9.91667 12.75 9.5625C12.7708 9.1875 12.7812 8.88542 12.7812 8.65625C12.7812 8.42708 12.7812 8.10417 12.7812 7.6875C12.7812 7.27083 12.7812 7.04167 12.7812 7C12.7812 6.9375 12.7812 6.70833 12.7812 6.3125C12.7812 5.89583 12.7812 5.57292 12.7812 5.34375C12.7812 5.11458 12.7708 4.82292 12.75 4.46875C12.7292 4.09375 12.6979 3.78125 12.6562 3.53125C12.6146 3.26042 12.5625 3.04167 12.5 2.875C12.25 2.22917 11.8021 1.78125 11.1562 1.53125C10.9896 1.46875 10.7708 1.41667 10.5 1.375C10.25 1.33333 9.9375 1.30208 9.5625 1.28125C9.20833 1.26042 8.91667 1.25 8.6875 1.25C8.47917 1.25 8.15625 1.25 7.71875 1.25C7.30208 1.25 7.07292 1.25 7.03125 1.25C6.98958 1.25 6.76042 1.25 6.34375 1.25C5.92708 1.25 5.60417 1.25 5.375 1.25C5.14583 1.25 4.84375 1.26042 4.46875 1.28125C4.11458 1.30208 3.80208 1.33333 3.53125 1.375C3.28125 1.41667 3.07292 1.46875 2.90625 1.53125C2.26042 1.78125 1.8125 2.22917 1.5625 2.875C1.5 3.04167 1.44792 3.26042 1.40625 3.53125C1.36458 3.78125 1.33333 4.09375 1.3125 4.46875C1.29167 4.82292 1.28125 5.11458 1.28125 5.34375C1.28125 5.55208 1.28125 5.875 1.28125 6.3125C1.28125 6.72917 1.28125 6.95833 1.28125 7C1.28125 7.08333 1.28125 7.28125 1.28125 7.59375C1.28125 7.88542 1.28125 8.13542 1.28125 8.34375C1.28125 8.53125 1.28125 8.78125 1.28125 9.09375C1.30208 9.40625 1.32292 9.67708 1.34375 9.90625C1.36458 10.1146 1.39583 10.3333 1.4375 10.5625C1.47917 10.7917 1.52083 10.9792 1.5625 11.125C1.83333 11.7708 2.28125 12.2188 2.90625 12.4688C3.07292 12.5312 3.28125 12.5833 3.53125 12.625C3.80208 12.6667 4.11458 12.6979 4.46875 12.7188C4.84375 12.7396 5.13542 12.75 5.34375 12.75C5.57292 12.75 5.89583 12.75 6.3125 12.75C6.75 12.75 6.98958 12.75 7.03125 12.75C7.09375 12.75 7.32292 12.75 7.71875 12.75C8.13542 12.75 8.45833 12.75 8.6875 12.75C8.91667 12.75 9.20833 12.7396 9.5625 12.7188C9.9375 12.6979 10.25 12.6667 10.5 12.625C10.7708 12.5833 10.9896 12.5312 11.1562 12.4688C11.8021 12.1979 12.25 11.75 12.5 11.125Z" ></path>
  </symbol>
  <symbol xmlns="http://www.w3.org/2000/svg" viewBox="0 0 16 13" id="mail">
    <path d="M10.2757 7.21425L9.32143 9.14281H6.10714L5.1529 7.21425H1.97879C1.99888 7.16403 2.00893 7.10376 2.02902 7.05354L4.15848 2.07139H11.2701L13.3996 7.05354C13.4196 7.10376 13.4297 7.16403 13.4498 7.21425H10.2757ZM15.4286 7.51559C15.4286 7.15398 15.3181 6.62162 15.1775 6.2801L12.7868 0.735451C12.6462 0.403977 12.2444 0.142822 11.8929 0.142822H3.53571C3.18415 0.142822 2.78237 0.403977 2.64174 0.735451L0.251116 6.2801C0.110491 6.62162 0 7.15398 0 7.51559V12.3571C0 12.7087 0.291295 13 0.642857 13H14.7857C15.1373 13 15.4286 12.7087 15.4286 12.3571V7.51559Z"></path>
  </symbol>
  <symbol xmlns="http://www.w3.org/2000/svg" viewBox="0 0 15 15" id="phone">
    <path d="M14.1429 12.0268C14.1429 11.9565 14.1429 11.8862 14.1127 11.8159C14.0424 11.6049 13.5502 11.384 13.3493 11.2835C12.7768 10.9621 12.1942 10.6507 11.6317 10.3192C11.3705 10.1585 11.0491 9.85717 10.7377 9.85717C10.125 9.85717 9.23103 11.6753 8.68862 11.6753C8.41741 11.6753 8.06585 11.4241 7.82478 11.2835C5.99665 10.269 4.73103 9.00338 3.71652 7.17526C3.57589 6.93419 3.32478 6.58263 3.32478 6.31142C3.32478 5.76901 5.14286 4.87503 5.14286 4.26231C5.14286 3.95093 4.84152 3.6295 4.6808 3.36834C4.34933 2.80584 4.03795 2.22325 3.71652 1.6507C3.61607 1.44981 3.39509 0.957623 3.18415 0.88731C3.11384 0.857176 3.04353 0.857178 2.97321 0.857178C2.61161 0.857178 1.90848 1.01789 1.57701 1.16856C1.08482 1.3795 0.763393 1.942 0.512277 2.39401C0.190848 2.98664 0 3.58932 0 4.26231C0 5.19646 0.381696 6.04021 0.69308 6.89401C0.914063 7.50673 1.18527 8.09937 1.52679 8.65182C2.58147 10.3594 4.64062 12.4186 6.34821 13.4732C6.90067 13.8148 7.4933 14.086 8.10603 14.307C8.95982 14.6183 9.80357 15 10.7377 15C11.4107 15 12.0134 14.8092 12.606 14.4878C13.058 14.2366 13.6205 13.9152 13.8315 13.423C13.9821 13.0915 14.1429 12.3884 14.1429 12.0268Z"></path>
  </symbol>
  <symbol xmlns="http://www.w3.org/2000/svg" viewBox="0 0 9 14" id="pin">
    <path d="M6.42857 4.49995C6.42857 5.68019 5.46596 6.64281 4.28571 6.64281C3.10547 6.64281 2.14286 5.68019 2.14286 4.49995C2.14286 3.3197 3.10547 2.35709 4.28571 2.35709C5.46596 2.35709 6.42857 3.3197 6.42857 4.49995ZM8.57143 4.49995C8.57143 2.13109 6.65458 0.214233 4.28571 0.214233C1.91685 0.214233 0 2.13109 0 4.49995C0 5.01055 0.0585938 5.53789 0.276228 5.99827L3.33147 12.4771C3.49888 12.8454 3.88393 13.0714 4.28571 13.0714C4.6875 13.0714 5.07255 12.8454 5.24833 12.4771L8.2952 5.99827C8.51283 5.53789 8.57143 5.01055 8.57143 4.49995Z"></path>
  </symbol>
  <symbol xmlns="http://www.w3.org/2000/svg" viewBox="0 0 16 17" id="watch">
    <path d="M9 5.03575C9 4.85495 8.85938 4.71431 8.67857 4.71431H8.03572C7.85491 4.71431 7.71429 4.85495 7.71429 5.03575V8.57146H5.46429C5.28348 8.57146 5.14286 8.71208 5.14286 8.89288V9.53575C5.14286 9.71655 5.28348 9.85718 5.46429 9.85718H8.67857C8.85938 9.85718 9 9.71655 9 9.53575V5.03575ZM13.1786 8.57146C13.1786 11.5848 10.7277 14.0358 7.71429 14.0358C4.70089 14.0358 2.25 11.5848 2.25 8.57146C2.25 5.55806 4.70089 3.10718 7.71429 3.10718C10.7277 3.10718 13.1786 5.55806 13.1786 8.57146ZM15.4286 8.57146C15.4286 4.31253 11.9732 0.857178 7.71429 0.857178C3.45536 0.857178 0 4.31253 0 8.57146C0 12.8304 3.45536 16.2858 7.71429 16.2858C11.9732 16.2858 15.4286 12.8304 15.4286 8.57146Z"></path>
  </symbol>
  <symbol xmlns="http://www.w3.org/2000/svg" viewBox="0 0 16 14" id="x">
    <path d="M14.3438 3.75C14.3646 3.83333 14.375 3.96875 14.375 4.15625C14.375 5.26042 14.1667 6.36458 13.75 7.46875C13.3333 8.55208 12.7396 9.55208 11.9688 10.4688C11.2188 11.3646 10.2396 12.0938 9.03125 12.6562C7.82292 13.2188 6.48958 13.5 5.03125 13.5C3.19792 13.5 1.52083 13.0104 0 12.0312C0.229167 12.0521 0.489583 12.0625 0.78125 12.0625C2.30208 12.0625 3.66667 11.5938 4.875 10.6562C4.14583 10.6562 3.5 10.4479 2.9375 10.0312C2.39583 9.59375 2.02083 9.05208 1.8125 8.40625C2.02083 8.42708 2.21875 8.4375 2.40625 8.4375C2.69792 8.4375 2.98958 8.40625 3.28125 8.34375C2.78125 8.23958 2.33333 8.03125 1.9375 7.71875C1.54167 7.40625 1.22917 7.03125 1 6.59375C0.770833 6.13542 0.65625 5.64583 0.65625 5.125V5.0625C1.11458 5.33333 1.60417 5.47917 2.125 5.5C1.14583 4.83333 0.65625 3.91667 0.65625 2.75C0.65625 2.16667 0.8125 1.61458 1.125 1.09375C1.9375 2.11458 2.92708 2.92708 4.09375 3.53125C5.28125 4.13542 6.54167 4.46875 7.875 4.53125C7.83333 4.28125 7.8125 4.03125 7.8125 3.78125C7.8125 2.88542 8.125 2.11458 8.75 1.46875C9.39583 0.822917 10.1667 0.5 11.0625 0.5C12.0208 0.5 12.8229 0.84375 13.4688 1.53125C14.2188 1.38542 14.9167 1.125 15.5625 0.75C15.3125 1.52083 14.8333 2.125 14.125 2.5625C14.75 2.47917 15.375 2.30208 16 2.03125C15.5417 2.69792 14.9896 3.27083 14.3438 3.75Z"></path>
  </symbol>
  <symbol xmlns="http://www.w3.org/2000/svg" viewBox="0 0 70 70" id="zoom">
    <path fill-rule="evenodd" clip-rule="evenodd" d="M28.4375 52.5C31.5974 52.5 34.7264 51.8776 37.6458 50.6684C40.5652 49.4591 43.2178 47.6867 45.4523 45.4523C47.6867 43.2178 49.4591 40.5652 50.6684 37.6458C51.8776 34.7264 52.5 31.5974 52.5 28.4375C52.5 25.2776 51.8776 22.1486 50.6684 19.2292C49.4591 16.3098 47.6867 13.6572 45.4523 11.4227C43.2178 9.18833 40.5652 7.4159 37.6458 6.20665C34.7264 4.9974 31.5974 4.375 28.4375 4.375C22.0557 4.375 15.9353 6.91015 11.4227 11.4227C6.91015 15.9353 4.375 22.0557 4.375 28.4375C4.375 34.8193 6.91015 40.9397 11.4227 45.4523C15.9353 49.9649 22.0557 52.5 28.4375 52.5ZM56.875 28.4375C56.875 35.9796 53.8789 43.2128 48.5458 48.5458C43.2128 53.8789 35.9796 56.875 28.4375 56.875C20.8954 56.875 13.6622 53.8789 8.32915 48.5458C2.99609 43.2128 0 35.9796 0 28.4375C0 20.8954 2.99609 13.6622 8.32915 8.32915C13.6622 2.99609 20.8954 0 28.4375 0C35.9796 0 43.2128 2.99609 48.5458 8.32915C53.8789 13.6622 56.875 20.8954 56.875 28.4375Z" ></path>
    <path d="M45.255 51.3712C45.3863 51.5462 45.5263 51.7125 45.6838 51.8744L62.5275 68.7181C63.3479 69.539 64.4607 70.0005 65.6213 70.0009C66.7818 70.0013 67.895 69.5406 68.7159 68.7203C69.5369 67.8999 69.9983 66.7871 69.9987 65.6265C69.9991 64.466 69.5385 63.3528 68.7181 62.5319L51.8744 45.6881C51.718 45.5298 51.5498 45.3835 51.3713 45.2506C49.655 47.5907 47.5927 49.656 45.255 51.3756V51.3712Z"></path>
    <path fill-rule="evenodd" clip-rule="evenodd" d="M28.4375 13.125C29.0177 13.125 29.5741 13.3555 29.9843 13.7657C30.3945 14.1759 30.625 14.7323 30.625 15.3125V26.25H41.5625C42.1427 26.25 42.6991 26.4805 43.1093 26.8907C43.5195 27.3009 43.75 27.8573 43.75 28.4375C43.75 29.0177 43.5195 29.5741 43.1093 29.9843C42.6991 30.3945 42.1427 30.625 41.5625 30.625H30.625V41.5625C30.625 42.1427 30.3945 42.6991 29.9843 43.1093C29.5741 43.5195 29.0177 43.75 28.4375 43.75C27.8573 43.75 27.3009 43.5195 26.8907 43.1093C26.4805 42.6991 26.25 42.1427 26.25 41.5625V30.625H15.3125C14.7323 30.625 14.1759 30.3945 13.7657 29.9843C13.3555 29.5741 13.125 29.0177 13.125 28.4375C13.125 27.8573 13.3555 27.3009 13.7657 26.8907C14.1759 26.4805 14.7323 26.25 15.3125 26.25H26.25V15.3125C26.25 14.7323 26.4805 14.1759 26.8907 13.7657C27.3009 13.3555 27.8573 13.125 28.4375 13.125Z" ></path>
  </symbol>
</svg>